<svg xmlns="http://www.w3.org/2000/svg" xmlns:xlink="http://www.w3.org/1999/xlink" aria-hidden="true" role="img" class="iconify iconify--ph" width="100%" height="100%" preserveAspectRatio="xMidYMid meet" viewBox="0 0 256 256"><path fill="currentColor" d="M155.6 39a4 4 0 0 1 4.9-2.9a84.4 84.4 0 0 1 59.4 59.4a4 4 0 0 1-2.9 4.9l-1 .2a4.1 4.1 0 0 1-3.9-3a76.2 76.2 0 0 0-53.7-53.7a3.9 3.9 0 0 1-2.8-4.9Zm-5.5 35.8a44 44 0 0 1 31.1 31.1a4.1 4.1 0 0 0 3.9 3l1-.2a3.9 3.9 0 0 0 2.8-4.9a51.6 51.6 0 0 0-36.7-36.7a3.9 3.9 0 0 0-4.9 2.8a4 4 0 0 0 2.8 4.9Zm77.5 99.8A52.1 52.1 0 0 1 176 220C98.8 220 36 157.2 36 80a52.1 52.1 0 0 1 45.4-51.6a12.1 12.1 0 0 1 12.5 7.2L114 82.5a12 12 0 0 1-1 11.3l-16.6 25.4a3.9 3.9 0 0 0-.3 3.9a79.9 79.9 0 0 0 37.2 37a3.7 3.7 0 0 0 3.8-.3l25.1-16.7a11.9 11.9 0 0 1 11.4-1.1l46.8 20.1a12.1 12.1 0 0 1 7.2 12.5Zm-10.4-5.1l-46.8-20.1a4 4 0 0 0-3.8.3l-25 16.7a11.9 11.9 0 0 1-11.8.9a88.6 88.6 0 0 1-40.9-40.7a12.1 12.1 0 0 1 .8-11.8l16.6-25.4a3.9 3.9 0 0 0 .3-3.8L86.5 38.8a3.9 3.9 0 0 0-3.6-2.5h-.5A44.1 44.1 0 0 0 44 80a132.1 132.1 0 0 0 132 132a44.1 44.1 0 0 0 43.7-38.4a4 4 0 0 0-2.5-4.1Z"></path></svg>